HIERARCHY
ROOT Hips
{
	OFFSET 0.000000 0.000000 0.000000
	CHANNELS 6 Xposition Yposition Zposition Xrotation Yrotation Zrotation
	JOINT LeftUpLeg_virtual
	{
		OFFSET 0.000000 0.000000 0.000000
		CHANNELS 3 Xrotation Yrotation Zrotation
		JOINT LeftUpLeg
		{
			OFFSET 10.205400 -3.823500 0.155100
			CHANNELS 3 Xrotation Yrotation Zrotation
			JOINT LeftLeg
			{
				OFFSET 0.708757 -12.982077 0.567790
				CHANNELS 3 Xrotation Yrotation Zrotation
				JOINT LeftFoot
				{
					OFFSET -0.708756 -10.717838 -2.184338
					CHANNELS 3 Xrotation Yrotation Zrotation
					JOINT LeftToeBase
					{
						OFFSET 0.108149 -7.191104 7.560241
						CHANNELS 3 Xrotation Yrotation Zrotation
						JOINT LeftToe_End
						{
							OFFSET 0.070230 0.081724 4.490308
							CHANNELS 3 Xrotation Yrotation Zrotation
							End Site
							{
								OFFSET 0 0 0
							}
						}
					}
				}
			}
		}
	}
	JOINT RightUpLeg_virtual
	{
		OFFSET 0.000000 0.000000 0.000000
		CHANNELS 3 Xrotation Yrotation Zrotation
		JOINT RightUpLeg
		{
			OFFSET -10.205400 -3.823500 0.005500
			CHANNELS 3 Xrotation Yrotation Zrotation
			JOINT RightLeg
			{
				OFFSET -0.708756 -12.982134 0.610632
				CHANNELS 3 Xrotation Yrotation Zrotation
				JOINT RightFoot
				{
					OFFSET 0.708754 -10.717769 -1.945823
					CHANNELS 3 Xrotation Yrotation Zrotation
					JOINT RightToeBase
					{
						OFFSET -0.108140 -7.191069 7.372968
						CHANNELS 3 Xrotation Yrotation Zrotation
						JOINT RightToe_End
						{
							OFFSET -0.070227 0.081735 4.479403
							CHANNELS 3 Xrotation Yrotation Zrotation
							End Site
							{
								OFFSET 0 0 0
							}
						}
					}
				}
			}
		}
	}
	JOINT Spine_virtual
	{
		OFFSET 0.000000 0.000000 0.000000
		CHANNELS 3 Xrotation Yrotation Zrotation
		JOINT Spine
		{
			OFFSET 0.000000 6.876099 0.125700
			CHANNELS 3 Xrotation Yrotation Zrotation
			JOINT Spine1
			{
				OFFSET 0.000000 5.730043 0.104720
				CHANNELS 3 Xrotation Yrotation Zrotation
				JOINT Spine1_split
				{
					OFFSET 0.000000 5.730043 0.104720
					CHANNELS 3 Xrotation Yrotation Zrotation
					JOINT Spine2
					{
						OFFSET 0.000000 5.730043 0.104720
						CHANNELS 3 Xrotation Yrotation Zrotation
						JOINT Neck_virtual
						{
							OFFSET 0.000000 0.000000 0.000000
							CHANNELS 3 Xrotation Yrotation Zrotation
							JOINT Neck
							{
								OFFSET 0.000000 10.314075 0.188496
								CHANNELS 3 Xrotation Yrotation Zrotation
								JOINT Head
								{
									OFFSET 0.000000 7.643700 -2.377400
									CHANNELS 3 Xrotation Yrotation Zrotation
									JOINT HeadTop_End
									{
										OFFSET 0.000000 43.788605 -13.619600
										CHANNELS 3 Xrotation Yrotation Zrotation
										End Site
										{
											OFFSET 0 0 0
										}
									}
								}
							}
						}
						JOINT LeftShoulder_virtual
						{
							OFFSET 0.000000 0.000000 0.000000
							CHANNELS 3 Xrotation Yrotation Zrotation
							JOINT LeftShoulder
							{
								OFFSET 2.196100 4.412489 0.087492
								CHANNELS 3 Xrotation Yrotation Zrotation
								JOINT LeftShoulder_split
								{
									OFFSET 2.196100 4.412489 0.087492
									CHANNELS 3 Xrotation Yrotation Zrotation
									JOINT LeftArm
									{
										OFFSET 8.771219 -2.981674 -0.026999
										CHANNELS 3 Xrotation Yrotation Zrotation
										JOINT LeftForeArm
										{
											OFFSET 8.512804 0.000000 -0.000000
											CHANNELS 3 Xrotation Yrotation Zrotation
											JOINT LeftHand
											{
												OFFSET 18.484802 0.000000 -0.000000
												CHANNELS 3 Xrotation Yrotation Zrotation
												End Site
												{
													OFFSET 0 0 0
												}
											}
										}
									}
								}
							}
						}
						JOINT RightShoulder_virtual
						{
							OFFSET 0.000000 0.000000 0.000000
							CHANNELS 3 Xrotation Yrotation Zrotation
							JOINT RightShoulder
							{
								OFFSET -2.196100 4.412496 0.070690
								CHANNELS 3 Xrotation Yrotation Zrotation
								JOINT RightShoulder_split
								{
									OFFSET -2.196100 4.412496 0.070690
									CHANNELS 3 Xrotation Yrotation Zrotation
									JOINT RightArm
									{
										OFFSET -8.771282 -2.981682 -0.094208
										CHANNELS 3 Xrotation Yrotation Zrotation
										JOINT RightForeArm
										{
											OFFSET -8.494598 0.000000 0.000000
											CHANNELS 3 Xrotation Yrotation Zrotation
											JOINT RightHand
											{
												OFFSET -18.483803 0.000000 0.000001
												CHANNELS 3 Xrotation Yrotation Zrotation
												End Site
												{
													OFFSET 0 0 0
												}
											}
										}
									}
								}
							}
						}
					}
				}
			}
		}
	}
}
MOTION
Frames: 5
Frame Time: 0.03333333
-0.045895 33.703213 0.222811 0.000000 0.000000 0.000000 -8.319017 -1.220898 9.759122 8.122405 12.510979 -14.116178 19.506066 2.201301 -3.384236 -21.139712 -1.269027 2.445148 -1.390626 0.639142 -0.921946 0.000000 0.000000 0.000000 -8.118734 -0.977940 9.605630 2.859131 -8.838172 -34.941083 17.718691 6.045017 6.103074 -8.914835 -14.313093 7.764877 -5.263158 -0.493021 -1.195178 0.000000 0.000000 0.000000 -7.919294 -3.852996 9.123828 2.378930 -1.199410 -7.085712 4.198154 2.184804 -3.061831 2.010697 -1.406382 1.643923 0.000000 0.000000 0.000000 3.665091 1.835672 -3.184635 0.365948 -3.152914 -6.687282 -1.150113 -11.806798 5.750377 0.000000 0.000000 0.000000 4.556055 1.312173 -3.377699 3.534777 -8.317278 -19.404518 -6.250581 4.982266 -6.136594 18.113225 2.240501 -45.869197 1.138110 -46.813253 -5.423880 0.000000 0.000000 0.000000 2.814592 2.030333 -1.972535 6.262377 5.827506 6.319368 -2.730471 4.366725 0.528051 0.690577 -8.888036 67.908329 18.365469 30.206385 0.913680 0.000000 0.000000 0.000000 
-0.220496 33.867264 0.487003 0.000000 0.000000 0.000000 -8.222898 -0.814718 9.597267 7.827797 11.535447 -13.571525 19.806183 2.429182 -3.200579 -20.204347 -0.775371 3.045323 -1.702227 0.676477 -1.096664 0.000000 0.000000 0.000000 -8.029000 -0.528307 9.488442 3.878750 -9.424895 -34.424980 17.019862 5.742478 5.698826 -8.321914 -13.631357 9.485247 -6.585546 -0.533371 -1.226419 0.000000 0.000000 0.000000 -7.950122 -3.386081 8.565762 2.360482 -1.161809 -7.125145 5.140687 2.238365 -2.826042 2.210147 -0.691547 1.721526 0.000000 0.000000 0.000000 4.367432 1.962060 -3.031624 -0.715811 -3.142606 -6.003478 -2.806190 -10.238004 5.288195 0.000000 0.000000 0.000000 5.461424 1.378634 -3.127270 3.576814 -9.576299 -17.775596 -4.021784 1.992861 -3.913355 19.155469 -0.710045 -46.990387 1.342616 -47.432822 -5.058328 0.000000 0.000000 0.000000 3.519482 2.129756 -1.840382 5.874953 6.057409 6.442578 -2.535864 5.414379 0.390334 1.774788 -6.684876 67.039454 18.882278 33.565158 -0.023478 0.000000 0.000000 0.000000 
-0.414676 34.133492 0.635454 0.000000 0.000000 0.000000 -8.374877 -0.482998 9.134647 7.797724 10.645381 -12.871888 19.683738 2.470416 -2.952505 -18.739678 -0.045979 3.827407 -2.588303 0.689709 -0.882562 0.000000 0.000000 0.000000 -7.911586 -0.203742 9.074927 5.352016 -10.175894 -33.440593 15.202396 4.994508 5.152655 -7.387065 -12.684216 10.688214 -5.899935 -0.408760 -1.449735 0.000000 0.000000 0.000000 -7.992034 -2.905959 7.691846 2.614172 -0.830366 -6.972971 6.640382 2.300663 -2.389389 1.913312 0.151394 1.486253 0.000000 0.000000 0.000000 5.968803 2.150593 -2.711177 -3.386909 -2.799243 -5.939423 -5.146499 -8.460025 4.330113 0.000000 0.000000 0.000000 7.062761 1.662122 -2.684582 3.575765 -11.817157 -14.997557 -1.918793 0.080549 -2.445933 23.916898 -6.594519 -44.525768 -1.978011 -52.738691 -5.884959 0.000000 0.000000 0.000000 5.132905 2.280692 -1.609428 5.450286 6.401313 6.287195 -2.291762 5.969789 0.366113 3.926165 -1.410885 64.872624 20.469548 36.853419 -3.087323 0.000000 0.000000 0.000000 
-0.579325 34.392906 0.679934 0.000000 0.000000 0.000000 -8.699628 -0.379612 8.475795 7.807121 10.193676 -12.161655 19.358073 2.234338 -2.770338 -16.667992 0.843210 4.435905 -3.629332 0.688442 -0.531209 0.000000 0.000000 0.000000 -7.719210 -0.020608 8.463269 6.235827 -10.614746 -32.303417 13.871566 4.117245 4.651731 -5.451336 -11.549261 11.686583 -4.400810 -0.199477 -1.914639 0.000000 0.000000 0.000000 -8.325627 -2.441667 6.761089 3.171984 -0.333977 -6.727188 8.464514 2.277577 -1.792251 1.279047 0.016658 1.453848 0.000000 0.000000 0.000000 8.218595 2.254722 -2.249436 -7.078483 -1.924694 -6.402369 -8.025817 -6.528222 2.895797 0.000000 0.000000 0.000000 9.014365 1.992439 -2.114995 3.627549 -14.651094 -11.418623 -0.769567 -0.078654 -3.088262 31.077880 -12.506654 -38.689467 -9.355665 -61.931040 -8.673211 0.000000 0.000000 0.000000 7.361586 2.363572 -1.299852 4.907808 6.987643 6.070744 -2.025245 5.699083 0.292427 6.762627 4.926780 61.451519 23.090146 39.891952 -8.139326 0.000000 0.000000 0.000000 
-0.747393 34.603329 0.666584 0.000000 0.000000 0.000000 -9.149665 -0.333540 7.804248 7.636467 10.353541 -11.509335 19.063632 1.614602 -2.769066 -13.928661 1.740781 4.585287 -4.722595 0.694557 -0.149730 0.000000 0.000000 0.000000 -7.467949 0.246666 7.775780 5.631403 -10.274238 -31.335518 14.911573 3.712931 4.303436 -2.321451 -10.200228 13.214953 -4.033743 0.037758 -2.546222 0.000000 0.000000 0.000000 -8.883247 -1.875624 5.970904 3.989020 0.101825 -6.487998 10.369928 2.129052 -1.146912 0.108160 -0.065716 1.175678 0.000000 0.000000 0.000000 10.742654 2.154464 -1.722107 -11.010573 -0.500474 -7.171707 -11.460073 -4.522556 1.043626 0.000000 0.000000 0.000000 11.029920 2.197201 -1.541911 3.741287 -17.758056 -7.855725 0.102511 0.349110 -5.124783 39.356547 -16.319636 -30.847289 -21.428341 -72.608087 -15.012515 0.000000 0.000000 0.000000 9.811296 2.287556 -0.946918 4.284245 8.073137 6.248145 -2.051192 5.064100 -0.166576 10.056898 10.615678 56.957624 26.600851 43.307200 -15.079292 0.000000 0.000000 0.000000 
